# xmcd CD database file
#
# Track frame offsets:
#	182
#	13215
#	26032
#	39065
#	68487
#	82745
#	103815
#	124970
#	137575
#	152982
#	160477
#	175197
#	188305
#	204002
#	217622
#	232767
#	247087
#	259842
#	273850
#	313245
#
# Disc length: 4361 seconds
#
# Revision: 0
# Processed by: cddbd v1.5.2PL0 Copyright (c) Steve Scherf et al.
# Submitted via: jetAudio 7
#
DISCID=fe110714
DTITLE=Elisabeth Welch - Soft lights and Sweet Music
DYEAR=1900
DGENRE=Vocal Female
TTITLE0=Diga Diga Doo
TTITLE1=Doin' The New Low Down
TTITLE2=Diga Diga Doo
TTITLE3=Soft Lights And Sweet Light Music Medley
TTITLE4=Solomon
TTITLE5=Far Away In Shanty Town
TTITLE6=Girl I Knew
TTITLE7=I Still Suits Me
TTITLE8=Dark Music
TTITLE9=Red Hot Annabelle
TTITLE10=These Foolish Things
TTITLE11=When Lights Are Low
TTITLE12=Nearness Of You
TTITLE13=Poor Butterfly
TTITLE14=Much More Lovely
TTITLE15=That's How The First Song Was Born
TTITLE16=And So Do I
TTITLE17=Harlem In My Heart
TTITLE18=Gershwin Medley
TTITLE19=I Gotta Go
EXTD=
EXTT0=
EXTT1=
EXTT2=
EXTT3=
EXTT4=
EXTT5=
EXTT6=
EXTT7=
EXTT8=
EXTT9=
EXTT10=
EXTT11=
EXTT12=
EXTT13=
EXTT14=
EXTT15=
EXTT16=
EXTT17=
EXTT18=
EXTT19=
PLAYORDER=
